<svg width="65" height="65" viewBox="0 0 65 65" fill="none" xmlns="http://www.w3.org/2000/svg">
<g clip-path="url(#clip0)">
<path d="M32.5215 64.2139C50.1946 64.2139 64.5215 49.887 64.5215 32.2139C64.5215 14.5408 50.1946 0.213867 32.5215 0.213867C14.8484 0.213867 0.521484 14.5408 0.521484 32.2139C0.521484 49.887 14.8484 64.2139 32.5215 64.2139Z" fill="black"/>
<path d="M36.0223 54.7139V34.2139H42.9223L43.9223 26.2139H36.0223V21.1139C36.0223 18.8139 36.6223 17.2139 40.0223 17.2139H44.2223V10.0139C43.5223 9.91387 41.0223 9.71387 38.0223 9.71387C31.9223 9.71387 27.7223 13.4139 27.7223 20.3139V26.2139H20.8223V34.2139H27.7223V54.7139H36.0223Z" fill="white"/>
</g>
<defs>
<clipPath id="clip0">
<rect width="64" height="64" fill="white" transform="translate(0.521484 0.213867)"/>
</clipPath>
</defs>
</svg>
