<svg width="180" height="180" viewBox="0 0 180 180" fill="none" xmlns="http://www.w3.org/2000/svg">
<path fill-rule="evenodd" clip-rule="evenodd" d="M25.3881 1.02153C15.8791 3.35953 7.63461 10.155 3.27361 19.25C-0.137888 26.364 -0.00238859 23.429 0.00161141 90.0985C0.00511141 148.651 0.0321113 150.362 1.01161 154.449C3.90761 166.528 14.0966 176.483 26.3466 179.202C29.4476 179.89 34.6206 180 63.7216 180H97.4981V144.509V109.017L84.3731 108.884L71.2481 108.75V95.75V82.75L84.3261 82.617L97.4036 82.4835L97.6206 68.867C97.8106 56.9525 97.9711 54.7625 98.9041 51.35C101.558 41.6425 107.61 34.3435 116.178 30.5165C122.684 27.61 128.628 26.941 142.441 27.5585C147.804 27.798 152.603 28.1245 153.104 28.2835C153.958 28.5545 154.008 29.328 153.882 40.4115L153.748 52.25L143.248 52.519C131.859 52.8105 130.243 53.1535 127.308 55.9015C124.261 58.755 123.818 60.69 123.591 72.125L123.385 82.5H137.192C144.785 82.5 150.998 82.57 150.998 82.6555C150.998 82.741 150.558 85.976 150.02 89.844C149.482 93.7125 148.8 98.8735 148.505 101.314C148.209 103.754 147.837 106.482 147.677 107.375L147.387 109H135.443H123.498V144.5V180H136.519C146.396 180 150.471 179.81 153.394 179.214C166.009 176.639 176.637 166.011 179.212 153.396C179.901 150.017 179.998 142.166 179.995 89.646C179.991 31.12 179.968 29.653 178.973 25.5015C176.692 15.988 169.846 7.63803 160.748 3.27553C153.625 -0.139965 156.614 -0.00396527 89.6496 0.0360347C32.0866 0.0705347 29.0666 0.117035 25.3881 1.02153Z" fill="black"/>
</svg>
