<svg width="33" height="33" viewBox="0 0 33 33" fill="none" xmlns="http://www.w3.org/2000/svg">
<path d="M18.7356 3.42908C12.9015 3.42908 8.17526 8.15765 8.17526 13.9891C8.17224 15.9102 8.6959 17.7954 9.6893 19.4397L4.56935 24.5596L4.58717 24.5775C4.04069 25.1005 3.70508 25.843 3.70508 26.6822C3.70475 28.3035 4.99637 29.5713 6.61601 29.571C7.44332 29.5707 8.18318 29.2397 8.71118 28.7011L8.72405 28.714L14.0067 23.431C15.4741 24.1678 17.0936 24.5507 18.7356 24.5491C24.57 24.5491 29.2953 19.8212 29.2953 13.9891C29.2953 8.15765 24.5697 3.42908 18.7356 3.42908V3.42908ZM18.7996 20.3967C15.1531 20.3967 12.1993 17.4419 12.1993 13.7967C12.1993 10.1522 15.1531 7.19669 18.7996 7.19669C22.4461 7.19669 25.3993 10.1518 25.3993 13.7967C25.3996 17.4419 22.4461 20.3967 18.7996 20.3967Z" fill="white"/>
</svg>
