<svg width="65" height="64" viewBox="0 0 65 64" fill="none" xmlns="http://www.w3.org/2000/svg">
<path d="M45.7717 24.7923V19.71V18.9503L45.012 18.9529L39.9297 18.9709L39.949 24.8116L45.7717 24.7923Z" fill="black"/>
<path d="M32.527 38.2815C35.8723 38.2815 38.5956 35.5608 38.5956 32.2155C38.5956 30.8957 38.1656 29.6724 37.4458 28.6771C36.3448 27.1499 34.5512 26.1469 32.527 26.1469C30.5028 26.1469 28.7117 27.1499 27.6082 28.6771C26.8884 29.6724 26.4609 30.8957 26.4609 32.2155C26.4609 35.5608 29.1817 38.2815 32.527 38.2815Z" fill="black"/>
<path d="M32.6846 0.0258789C15.1728 0.0258789 0.976562 14.2195 0.976562 31.7314C0.976562 49.2432 15.1728 63.4394 32.6846 63.4394C50.1939 63.4394 64.3901 49.2432 64.3901 31.7314C64.3901 14.2195 50.1926 0.0258789 32.6846 0.0258789ZM49.7625 28.6771V42.7909C49.7625 46.4632 46.7727 49.4505 43.1003 49.4505H21.9509C18.2773 49.4505 15.2899 46.4632 15.2899 42.7909V28.6771V21.6414C15.2899 17.9678 18.2773 14.9805 21.9509 14.9805H43.1003C46.7727 14.9805 49.7625 17.9678 49.7625 21.6414V28.6771Z" fill="black"/>
<path d="M41.9508 32.2155C41.9508 37.4112 37.7235 41.6411 32.5253 41.6411C27.3271 41.6411 23.1024 37.4112 23.1024 32.2155C23.1024 30.9627 23.3509 29.7716 23.7938 28.6771H18.6484V42.7909C18.6484 44.6116 20.1292 46.0924 21.9499 46.0924H43.0994C44.9201 46.0924 46.4009 44.6116 46.4009 42.7909V28.6771H41.2529C41.6997 29.7716 41.9508 30.964 41.9508 32.2155Z" fill="black"/>
</svg>
